<svg xmlns="http://www.w3.org/2000/svg" width="137.236" height="82.624" viewBox="0 0 137.236 82.624">
  <g id="组_3741" data-name="组 3741" transform="translate(-22058.048 -1890.376)">
    <g id="组_3732" data-name="组 3732" transform="translate(22092.16 1903.568)">
      <path id="路径_1845" data-name="路径 1845" d="M463.714,562.516a23.606,23.606,0,0,1-4.61.223,21.176,21.176,0,0,1-10.489-3.3,9.153,9.153,0,0,1-3.421-3.494,6.153,6.153,0,0,1,.756-6.332,6.371,6.371,0,0,1,1.836-1.566c.1-.059.212-.116.32-.171a6.886,6.886,0,0,1,3.807-.7,7.556,7.556,0,0,1,5.469,3.5,13.289,13.289,0,0,1,1.643,5.7c.041.378.076.756.11,1.133a16.647,16.647,0,0,1-.888,3.191,1.123,1.123,0,0,0-.05.155q.341.74.649,1.494a1.314,1.314,0,0,0,.629.159h4.229Z" transform="translate(-444.64 -547.143)" fill="#45d2eb"/>
      <path id="路径_1846" data-name="路径 1846" d="M483.271,568.185a.231.231,0,0,1-.307-.12c-.018-.043-.035-.086-.053-.13q-.246-.6-.515-1.183a36.027,36.027,0,0,0-10.027-12.976.168.168,0,0,1-.07-.156.231.231,0,0,1,.32-.171.219.219,0,0,1,.048.03,36.11,36.11,0,0,1,5.033,5,36.68,36.68,0,0,1,3.97,5.875q.462.853.878,1.73c.055.116.109.233.163.35q.341.74.649,1.494l.01.025a.168.168,0,0,1-.1.233Z" transform="translate(-469.152 -552.715)" fill="#fff"/>
    </g>
    <rect id="矩形_1822" data-name="矩形 1822" width="89.001" height="41" rx="4" transform="translate(22105.277 1891)" fill="#fff"/>
    <rect id="矩形_1823" data-name="矩形 1823" width="91.907" height="41" rx="6" transform="translate(22059.324 1919)" fill="#fff"/>
    <path id="路径_1873" data-name="路径 1873" d="M686.221,158.916h-.216a8.921,8.921,0,0,1-8.856-8.965V146.89H650.8v-.437h26.784v3.5a8.49,8.49,0,0,0,8.208,8.525V146.453h6.264a3.264,3.264,0,0,0,3.24-3.28V109.717a3.264,3.264,0,0,0-3.24-3.28H609.542a3.264,3.264,0,0,0-3.24,3.28v24.272h-.432V109.717A3.7,3.7,0,0,1,609.542,106h82.511a3.7,3.7,0,0,1,3.672,3.717v33.455a3.7,3.7,0,0,1-3.672,3.717h-5.832Z" transform="translate(21499.059 1784.876)" fill="#ccc" stroke="#ccc" stroke-width="1"/>
    <path id="路径_1874" data-name="路径 1874" d="M733.47,147.126a2.535,2.535,0,0,0-2.321-2.626H688.194a2.769,2.769,0,0,0,0,5.467h42.955a2.557,2.557,0,0,0,2.324-2.733A1.029,1.029,0,0,0,733.47,147.126Z" transform="translate(21440.184 1754.795)" fill="#ccc"/>
    <path id="路径_1875" data-name="路径 1875" d="M733.47,189.126a2.535,2.535,0,0,0-2.321-2.626H688.194a2.769,2.769,0,0,0,0,5.467h42.955a2.557,2.557,0,0,0,2.324-2.733A1.028,1.028,0,0,0,733.47,189.126Z" transform="translate(21440.184 1721.978)" fill="#ccc"/>
    <path id="路径_1876" data-name="路径 1876" d="M734.6,231.126a2.532,2.532,0,0,0-2.315-2.626H689.443a2.2,2.2,0,0,0-1.781.984,2.928,2.928,0,0,0-.252.437H707.9a3.066,3.066,0,0,1,2.782,3.28v.765h21.608a2.555,2.555,0,0,0,2.318-2.733A1.046,1.046,0,0,0,734.6,231.126Z" transform="translate(21439.051 1689.162)" fill="#ccc"/>
    <path id="路径_1881" data-name="路径 1881" d="M485.882,235H401.62a3.739,3.739,0,0,0-3.75,3.717v33.455a3.739,3.739,0,0,0,3.75,3.717h5.956v12.026h.221a9.014,9.014,0,0,0,9.044-8.965V275.89h69.042a3.739,3.739,0,0,0,3.75-3.717V238.717A3.739,3.739,0,0,0,485.882,235Zm3.309,37.173a3.3,3.3,0,0,1-3.309,3.28H416.4v3.5a8.576,8.576,0,0,1-8.382,8.526V275.453h-6.4a3.3,3.3,0,0,1-3.309-3.28V238.717a3.3,3.3,0,0,1,3.309-3.28h84.262a3.3,3.3,0,0,1,3.309,3.28Z" transform="translate(21661.178 1684.083)" fill="#fb9a08" stroke="#fb9a08" stroke-width="2"/>
    <path id="路径_1882" data-name="路径 1882" d="M524.962,273.5H480.287a2.575,2.575,0,0,0-2.414,2.626,1,1,0,0,0,0,.107,2.594,2.594,0,0,0,2.418,2.733h44.675a2.754,2.754,0,0,0,0-5.467Z" transform="translate(21602.305 1654.002)" fill="#45d2eb"/>
    <path id="路径_1883" data-name="路径 1883" d="M524.962,315.5H480.287a2.575,2.575,0,0,0-2.414,2.626,1,1,0,0,0,0,.107,2.594,2.594,0,0,0,2.418,2.733h44.675a2.754,2.754,0,0,0,0-5.467Z" transform="translate(21602.305 1621.186)" fill="#45d2eb"/>
    <path id="路径_1884" data-name="路径 1884" d="M524.962,357.5H480.287a2.575,2.575,0,0,0-2.414,2.626,1,1,0,0,0,0,.107,2.594,2.594,0,0,0,2.418,2.733h44.675a2.754,2.754,0,0,0,0-5.467Z" transform="translate(21602.305 1588.37)" fill="#45d2eb"/>
  </g>
</svg>
