<svg xmlns="http://www.w3.org/2000/svg" width="21" height="19" viewBox="0 0 21 19"><g><g><path fill="#fb6340" d="M9.647 2.899l.285.284a.803.803 0 0 0 1.136 0l.284-.284a4.423 4.423 0 0 1 6.25 0 4.423 4.423 0 0 1 0 6.25L10.5 16.25 3.398 9.148a4.423 4.423 0 0 1 0-6.25 4.408 4.408 0 0 1 3.126-1.291 4.404 4.404 0 0 1 3.123 1.292zM10.5 18.19a.801.801 0 0 0 .568-.235l7.67-7.67a6.033 6.033 0 0 0 0-8.522 6.032 6.032 0 0 0-8.238-.266 6.03 6.03 0 0 0-8.238.266 6.033 6.033 0 0 0 0 8.522l7.67 7.67c.15.15.355.236.568.235z"/></g></g></svg>