<svg xmlns="http://www.w3.org/2000/svg" width="15" height="13" viewBox="0 0 15 13"><g><g><g/><g><path fill="#29a1f7" d="M6.575 2.083l.204.205a.577.577 0 0 0 .817 0l.204-.205a3.179 3.179 0 0 1 4.492 0 3.179 3.179 0 0 1 0 4.492L7.187 11.68 2.083 6.575a3.179 3.179 0 0 1 0-4.492 3.168 3.168 0 0 1 2.246-.928 3.165 3.165 0 0 1 2.246.928zm1.02 10.822l5.513-5.513a4.336 4.336 0 0 0 0-6.125 4.336 4.336 0 0 0-5.92-.191 4.334 4.334 0 0 0-5.922.191 4.336 4.336 0 0 0 0 6.125l5.513 5.513a.576.576 0 0 0 .817 0z"/></g></g></g></svg>