<svg xmlns="http://www.w3.org/2000/svg" width="19" height="17" viewBox="0 0 19 17"><g><g><g><path fill="#29a1f7" d="M16.98 3.335l-1.83 6.67H6.3l-1.423-6.67zm-11.108 7.78H15.553a.538.538 0 0 0 .513-.402l2.136-7.781a.574.574 0 0 0-.087-.488.527.527 0 0 0-.427-.22H4.64L4.258.434A.54.54 0 0 0 3.738 0H.533A.545.545 0 0 0 0 .556c0 .307.24.556.534.556h2.775l1.927 9.03a1.673 1.673 0 0 0-.965 1.53c0 .919.718 1.667 1.601 1.667h9.681a.545.545 0 0 0 .534-.556.545.545 0 0 0-.534-.556h-9.68a.546.546 0 0 1-.534-.556c0-.306.238-.555.532-.555z"/></g><g><path fill="#29a1f7" d="M6.94 14.406a.535.535 0 1 1-.001 1.07.535.535 0 0 1 .001-1.07zm-1.601.534c0 .883.718 1.602 1.601 1.602s1.602-.719 1.602-1.602c0-.883-.719-1.601-1.602-1.601-.883 0-1.601.718-1.601 1.601z"/></g><g><path fill="#29a1f7" d="M14.485 14.406a.535.535 0 1 1-.001 1.07.535.535 0 0 1 .001-1.07zm-1.601.534c0 .883.718 1.602 1.601 1.602s1.602-.719 1.602-1.602c0-.883-.719-1.601-1.602-1.601-.883 0-1.601.718-1.601 1.601z"/></g></g></g></svg>