<svg xmlns="http://www.w3.org/2000/svg" width="30" height="30" viewBox="0 0 30 30"><defs><clipPath id="f9vfa"><path fill="#fff" d="M8 30a8 8 0 0 1-8-8V8a8 8 0 0 1 8-8h14a8 8 0 0 1 8 8v14a8 8 0 0 1-8 8z"/></clipPath></defs><g><g><g><path fill="none" stroke="#e9e9e9" stroke-miterlimit="20" stroke-width="2" d="M8 30a8 8 0 0 1-8-8V8a8 8 0 0 1 8-8h14a8 8 0 0 1 8 8v14a8 8 0 0 1-8 8z" clip-path="url(&quot;#f9vfa&quot;)"/></g><g><path fill="#8b8b8b" d="M19.188 6h-2.853c-1.693 0-3.576.712-3.576 3.166.008.855 0 1.674 0 2.596H10.8v3.116h2.02v8.973h3.71v-9.032h2.449l.221-3.066h-2.734s.006-1.364 0-1.76c0-.97 1.009-.914 1.07-.914h1.653V6z"/></g></g></g></svg>