<svg xmlns="http://www.w3.org/2000/svg" width="30" height="30" viewBox="0 0 30 30">
  <g id="Group_1985" data-name="Group 1985" transform="translate(-1740 -3167)">
    <g id="Path_1734" data-name="Path 1734" transform="translate(1740 3167)" fill="none">
      <path d="M7.5,0h15A7.5,7.5,0,0,1,30,7.5v15A7.5,7.5,0,0,1,22.5,30H7.5A7.5,7.5,0,0,1,0,22.5V7.5A7.5,7.5,0,0,1,7.5,0Z" stroke="none"/>
      <path d="M 7.5 1 C 3.915889739990234 1 1 3.915889739990234 1 7.5 L 1 22.5 C 1 26.08411026000977 3.915889739990234 29 7.5 29 L 22.5 29 C 26.08411026000977 29 29 26.08411026000977 29 22.5 L 29 7.5 C 29 3.915889739990234 26.08411026000977 1 22.5 1 L 7.5 1 M 7.5 0 L 22.5 0 C 26.64212989807129 0 30 3.357860565185547 30 7.5 L 30 22.5 C 30 26.64212989807129 26.64212989807129 30 22.5 30 L 7.5 30 C 3.357860565185547 30 0 26.64212989807129 0 22.5 L 0 7.5 C 0 3.357860565185547 3.357860565185547 0 7.5 0 Z" stroke="none" fill="#e9e9e9"/>
    </g>
    <path id="Path_22" data-name="Path 22" d="M6,9a3,3,0,1,1,3,3A3,3,0,0,1,6,9M4.379,9A4.622,4.622,0,1,0,9,4.379,4.621,4.621,0,0,0,4.379,9m8.346-4.8a1.08,1.08,0,1,0,1.08-1.08,1.081,1.081,0,0,0-1.08,1.08M5.364,16.326a4.972,4.972,0,0,1-1.671-.31,2.8,2.8,0,0,1-1.035-.673,2.782,2.782,0,0,1-.673-1.035,4.972,4.972,0,0,1-.31-1.671C1.631,11.689,1.622,11.4,1.622,9s.009-2.688.052-3.637a5,5,0,0,1,.31-1.671,2.8,2.8,0,0,1,.673-1.035,2.779,2.779,0,0,1,1.035-.673,4.972,4.972,0,0,1,1.671-.31C6.313,1.63,6.6,1.621,9,1.621s2.688.009,3.637.052a5,5,0,0,1,1.671.31,2.79,2.79,0,0,1,1.035.673,2.794,2.794,0,0,1,.673,1.035,4.972,4.972,0,0,1,.31,1.671c.044.949.052,1.234.052,3.637s-.009,2.688-.052,3.637a4.991,4.991,0,0,1-.31,1.671,2.98,2.98,0,0,1-1.708,1.708,4.972,4.972,0,0,1-1.671.31c-.949.044-1.234.052-3.637.052s-2.688-.009-3.636-.052M5.29.055A6.6,6.6,0,0,0,3.105.473,4.416,4.416,0,0,0,1.511,1.511,4.4,4.4,0,0,0,.473,3.105,6.6,6.6,0,0,0,.055,5.29C.01,6.249,0,6.556,0,9s.01,2.751.055,3.711A6.6,6.6,0,0,0,.473,14.9,4.4,4.4,0,0,0,1.511,16.49a4.414,4.414,0,0,0,1.594,1.038,6.606,6.606,0,0,0,2.185.418C6.25,17.99,6.556,18,9,18s2.751-.01,3.711-.055a6.6,6.6,0,0,0,2.185-.418A4.6,4.6,0,0,0,17.528,14.9a6.583,6.583,0,0,0,.418-2.185C17.99,11.751,18,11.445,18,9s-.01-2.751-.054-3.711a6.6,6.6,0,0,0-.418-2.185A4.426,4.426,0,0,0,16.49,1.511,4.414,4.414,0,0,0,14.9.473,6.591,6.591,0,0,0,12.712.055C11.752.011,11.445,0,9,0S6.25.01,5.29.055" transform="translate(1746 3173)" fill="#8b8b8b"/>
  </g>
</svg>
