<svg xmlns="http://www.w3.org/2000/svg" width="18" height="18" viewBox="0 0 18 18"><g><g><g><g><path fill="#fcfeff" d="M12.593 12.375h3.515a7.866 7.866 0 0 1-4.968 4.199c.269-.405.507-.87.714-1.402.316-.808.567-1.755.739-2.797zm-1.154 0c-.16.9-.37 1.718-.633 2.388-.28.719-.611 1.279-.936 1.63-.325.353-.61.482-.87.482s-.545-.13-.87-.481c-.325-.352-.656-.912-.936-1.63-.262-.671-.474-1.49-.633-2.389zm-6.032 0c.172 1.042.423 1.989.739 2.797.207.532.446.997.714 1.402a7.866 7.866 0 0 1-4.968-4.199zm7.32-5.625h3.818a7.89 7.89 0 0 1 .33 2.25c0 .783-.118 1.536-.33 2.25h-3.818c.075-.723.13-1.467.13-2.25 0-.783-.055-1.527-.13-2.25zm-6.32 0h5.186c.08.718.138 1.463.138 2.25 0 .787-.058 1.531-.138 2.25H6.407A20.017 20.017 0 0 1 6.27 9c0-.787.058-1.532.138-2.25zm-4.952 0h3.818c-.075.723-.13 1.467-.13 2.25 0 .783.055 1.527.13 2.25H1.455A7.879 7.879 0 0 1 1.125 9c0-.783.118-1.537.33-2.25zm9.683-5.326a7.867 7.867 0 0 1 4.972 4.201h-3.517c-.172-1.042-.423-1.986-.739-2.795a7.404 7.404 0 0 0-.716-1.406zm-4.276 0a7.4 7.4 0 0 0-.716 1.406c-.316.809-.567 1.753-.739 2.795H1.89a7.867 7.867 0 0 1 4.972-4.201zM9 1.125c.26 0 .545.132.87.483.325.352.656.913.936 1.63.262.672.476 1.487.635 2.387H6.56c.159-.9.373-1.715.635-2.386.28-.718.611-1.279.936-1.63.325-.352.61-.484.87-.484zM9 0C4.036 0 0 4.036 0 9s4.036 9 9 9 9-4.036 9-9-4.036-9-9-9z"/></g></g></g></g></svg>