<svg xmlns="http://www.w3.org/2000/svg" width="168" height="42" viewBox="0 0 168 42"><g><g><g><g><path fill="#f49f54" d="M.714 11.798L19.826.75l2.794 17.402L3.508 29.2z"/><path fill="none" stroke="#f49f54" stroke-linejoin="round" stroke-miterlimit="20" d="M.714 11.798v0L19.826.75v0l2.794 17.402v0L3.508 29.2v0z"/></g><g><path fill="#11cdef" d="M17.163 40.324l19.112-11.048L22.62 18.152 3.508 29.2z"/><path fill="none" stroke="#11cdef" stroke-linejoin="round" stroke-miterlimit="20" d="M17.163 40.324v0l19.112-11.048v0L22.62 18.152v0L3.508 29.2v0z"/></g></g><g><path fill="#575757" d="M157.986 18.021h2.717c.846 0 1.502-.215 1.966-.646.464-.43.696-1.023.696-1.78 0-.77-.219-1.377-.657-1.819-.438-.442-1.11-.663-2.016-.663h-2.706zm2.684 2.73h-2.684v5.985h-3.37V10.384h6.076c1.932 0 3.422.43 4.47 1.292 1.048.86 1.572 2.078 1.572 3.65 0 1.115-.241 2.046-.724 2.79-.483.745-1.215 1.339-2.196 1.78l3.538 6.683v.157h-3.616zm-18.215-.113h4.088l-2.056-6.12zm4.997 2.729h-5.907l-1.123 3.369h-3.582l6.086-16.352h3.122l6.121 16.352h-3.582zm-19.45.662h7.154v2.707h-10.523V10.384h3.369zm-7.052-13.645v10.77c0 1.79-.56 3.205-1.679 4.246-1.12 1.04-2.648 1.56-4.587 1.56-1.91 0-3.426-.505-4.549-1.516-1.123-1.01-1.696-2.4-1.718-4.166V10.384h3.37v10.793c0 1.07.256 1.851.768 2.341.513.49 1.223.736 2.129.736 1.894 0 2.856-.996 2.886-2.987V10.384zM104.925 24.67c-.606.726-1.463 1.29-2.572 1.69-1.108.4-2.336.6-3.683.6-1.415 0-2.656-.308-3.723-.926-1.067-.618-1.89-1.514-2.47-2.69-.581-1.175-.879-2.556-.894-4.144v-1.112c0-1.632.276-3.045.826-4.239.55-1.194 1.344-2.108 2.38-2.74 1.038-.633 2.252-.95 3.645-.95 1.94 0 3.455.463 4.548 1.388 1.093.924 1.741 2.27 1.943 4.037h-3.28c-.149-.936-.48-1.62-.993-2.055-.513-.434-1.218-.651-2.117-.651-1.145 0-2.018.43-2.617 1.291-.599.861-.902 2.141-.91 3.84v1.045c0 1.715.326 3.01.978 3.886.651.876 1.606 1.314 2.864 1.314 1.265 0 2.167-.27 2.706-.809v-2.818H98.49v-2.482h6.435zm-16.8 2.066h-3.369l-6.558-10.759v10.759h-3.37V10.384h3.37l6.57 10.782V10.384h3.357zm-17.339 0h-3.369V10.384h3.37zm-10.162-4.29c0-.637-.225-1.125-.674-1.466-.45-.34-1.258-.7-2.426-1.078-1.168-.378-2.093-.75-2.774-1.117-1.857-1.003-2.785-2.355-2.785-4.054 0-.884.249-1.672.747-2.364.498-.693 1.213-1.234 2.145-1.623.932-.39 1.978-.584 3.139-.584 1.168 0 2.208.211 3.122.634.913.423 1.623 1.02 2.128 1.792.505.77.758 1.647.758 2.627h-3.37c0-.748-.235-1.33-.707-1.746-.471-.415-1.134-.623-1.987-.623-.824 0-1.464.174-1.92.522a1.647 1.647 0 0 0-.686 1.376c0 .531.268.977.803 1.336.535.36 1.323.697 2.364 1.011 1.917.576 3.313 1.291 4.19 2.145.875.854 1.313 1.917 1.313 3.19 0 1.414-.535 2.524-1.606 3.33-1.07.804-2.512 1.207-4.324 1.207-1.257 0-2.403-.23-3.436-.691-1.033-.46-1.821-1.091-2.364-1.892-.543-.802-.814-1.73-.814-2.786h3.38c0 1.805 1.078 2.707 3.234 2.707.802 0 1.427-.163 1.876-.489.45-.325.674-.78.674-1.364z"/></g></g></g></svg>