<svg xmlns="http://www.w3.org/2000/svg" width="24" height="24" viewBox="0 0 24 24">
  <g id="Group_3126" data-name="Group 3126" transform="translate(-1462 -65)">
    <path id="Union_1" data-name="Union 1" d="M1.691,17.872a1.714,1.714,0,0,1-.9-.254,1.777,1.777,0,0,1-.7-.875,2.48,2.48,0,0,1-.092-.9A12.173,12.173,0,0,1,.084,13.9a5.059,5.059,0,0,1,1.3-2.582A5.206,5.206,0,0,1,3.867,9.834a6.614,6.614,0,0,1,1.694-.172h3.41a6.93,6.93,0,0,1,1.653.153,5.211,5.211,0,0,1,2.52,1.457,5.073,5.073,0,0,1,1.326,2.563,11.206,11.206,0,0,1,.094,1.966,2.935,2.935,0,0,1-.067.869,1.717,1.717,0,0,1-1.535,1.2.712.712,0,0,1-.088.005H1.691ZM6.828,9a5.237,5.237,0,0,1-.767-.136,5.262,5.262,0,0,1-.736-.275A4.522,4.522,0,0,1,3.36,6.838a4.442,4.442,0,0,1-.34-3.959,4.635,4.635,0,0,1,.327-.672,4.982,4.982,0,0,1,.446-.61A4.631,4.631,0,0,1,8.8.255,4.544,4.544,0,0,1,10,.884a4.879,4.879,0,0,1,.567.481,5.2,5.2,0,0,1,.475.57,4.422,4.422,0,0,1,.823,2.574.74.74,0,0,1,0,.088,5.306,5.306,0,0,1-.07.694A4.542,4.542,0,0,1,8.25,8.921a5,5,0,0,1-.972.1A3.908,3.908,0,0,1,6.828,9Z" transform="translate(1467 68)" fill="#fff"/>
    <rect id="Rectangle_1559" data-name="Rectangle 1559" width="24" height="24" transform="translate(1462 65)" fill="none"/>
  </g>
</svg>
