<svg xmlns="http://www.w3.org/2000/svg" width="26.4" height="18.971" viewBox="0 0 26.4 18.971">
  <g id="Layer_2" data-name="Layer 2" transform="translate(-1.8 -5.8)">
    <path id="路径_1839" data-name="路径 1839" d="M25.214,10H4.786A2.786,2.786,0,0,0,2,12.786v9.286a2.786,2.786,0,0,0,2.786,2.786H25.214A2.786,2.786,0,0,0,28,22.071V12.786A2.786,2.786,0,0,0,25.214,10Zm.929,12.071a.929.929,0,0,1-.929.929H4.786a.929.929,0,0,1-.929-.929V12.786a.929.929,0,0,1,.929-.929H25.214a.929.929,0,0,1,.929.929Z" transform="translate(0 -0.286)" fill="#bcbcbc" stroke="#cfd2d4" stroke-width="0.4"/>
    <path id="路径_1840" data-name="路径 1840" d="M15.286,12.5a4.643,4.643,0,1,0,4.643,4.643A4.643,4.643,0,0,0,15.286,12.5Zm0,7.429a2.786,2.786,0,1,1,2.786-2.786A2.786,2.786,0,0,1,15.286,19.929Zm-7.429-6.5H6.929a.929.929,0,0,0,0,1.857h.929a.929.929,0,0,0,0-1.857ZM23.643,19h-.929a.929.929,0,0,0,0,1.857h.929a.929.929,0,0,0,0-1.857ZM6.929,7.857H23.643a.929.929,0,1,0,0-1.857H6.929a.929.929,0,0,0,0,1.857Z" transform="translate(-0.286)" fill="#bcbcbc" stroke="#cfd2d4" stroke-width="0.4"/>
  </g>
</svg>
