<svg xmlns="http://www.w3.org/2000/svg" width="28" height="28" viewBox="0 0 28 28">
  <g id="Layer_2" data-name="Layer 2" transform="translate(-0.341 -0.341)">
    <g id="car">
      <rect id="矩形_1819" data-name="矩形 1819" width="28" height="28" transform="translate(0.341 0.341)" fill="#bcbcbc" opacity="0"/>
      <path id="路径_1841" data-name="路径 1841" d="M25.425,12.824,19.927,8.4V5.39A2.283,2.283,0,0,0,17.764,3H4.14A2.283,2.283,0,0,0,2,5.39V17.341a2.39,2.39,0,0,0,1.434,2.247,3.585,3.585,0,1,0,6.693.143h7.6a3.585,3.585,0,1,0,6.74,0h.239a1.2,1.2,0,0,0,1.2-1.2v-4.78a1.2,1.2,0,0,0-.478-.932ZM23.512,14.33v3.012H19.927v-5.88Zm-15.536,6.6a1.2,1.2,0,1,1-1.2-1.2A1.2,1.2,0,0,1,7.976,20.927Zm5.976-3.585H4.391V5.39H17.537V17.341Zm8.366,3.585a1.2,1.2,0,1,1-1.2-1.2A1.2,1.2,0,0,1,22.317,20.927Z" transform="translate(0.39 0.585)" fill="#bcbcbc"/>
    </g>
  </g>
</svg>
