<svg xmlns="http://www.w3.org/2000/svg" width="24" height="24" viewBox="0 0 24 24">
  <g id="Group_3704" data-name="Group 3704" transform="translate(319 -763) rotate(90)">
    <g id="Page-1" transform="translate(771.001 299.999)">
      <g id="Dribbble-Light-Preview" transform="translate(0 0.001)">
        <g id="icons" transform="translate(0)">
          <path id="arrow_right-_336_" data-name="arrow_right-[#336]" d="M249.259,6532.935a.751.751,0,0,0,1.035,0l6.054-5.842a1.379,1.379,0,0,0,0-2l-6.1-5.885a.752.752,0,0,0-1.028-.007.691.691,0,0,0-.008,1.008l5.581,5.385a.689.689,0,0,1,0,1l-5.536,5.343a.688.688,0,0,0,0,1" transform="translate(-248.999 -6519.001)" fill="#2185d0" fill-rule="evenodd"/>
        </g>
      </g>
    </g>
    <rect id="Rectangle_1570" data-name="Rectangle 1570" width="24" height="24" transform="translate(763 295)" fill="none"/>
  </g>
</svg>
