<svg xmlns="http://www.w3.org/2000/svg" width="100.001" height="94.297" viewBox="0 0 100.001 94.297">
  <g id="组_3729" data-name="组 3729" transform="translate(-19703.978 -1264.703)">
    <path id="路径_1845" data-name="路径 1845" d="M478.2,574.193a41.535,41.535,0,0,1-8.112.392,37.26,37.26,0,0,1-18.456-5.805,16.1,16.1,0,0,1-6.019-6.147,10.826,10.826,0,0,1,1.331-11.142,11.209,11.209,0,0,1,3.23-2.756c.184-.1.372-.2.562-.3a12.118,12.118,0,0,1,6.7-1.227,13.3,13.3,0,0,1,9.623,6.165c1.861,2.982,2.509,6.5,2.892,10.025.072.664.134,1.331.194,1.993a29.286,29.286,0,0,1-1.563,5.615,1.976,1.976,0,0,0-.088.272q.6,1.3,1.143,2.629a2.312,2.312,0,0,0,1.107.28h7.442Z" transform="translate(19259.338 783.335)" fill="#45d2eb"/>
    <path id="路径_1846" data-name="路径 1846" d="M491.606,579.392a.407.407,0,0,1-.54-.212c-.032-.076-.062-.152-.094-.228q-.432-1.051-.906-2.081a63.391,63.391,0,0,0-17.644-22.832.3.3,0,0,1-.124-.274.407.407,0,0,1,.562-.3.382.382,0,0,1,.084.052,63.537,63.537,0,0,1,8.857,8.795,64.538,64.538,0,0,1,6.986,10.338q.813,1.5,1.545,3.044c.1.2.192.41.286.616q.6,1.3,1.143,2.629l.018.044a.3.3,0,0,1-.172.41Z" transform="translate(19237.215 778.306)" fill="#fff"/>
    <path id="路径_1864" data-name="路径 1864" d="M694.468,285.124h-3.28v-.435h3.241a4.142,4.142,0,0,0,3.017-1.52c2.1-2.328,3.829-8.09.115-22.323a78.962,78.962,0,0,1,1.194-42.427,1.971,1.971,0,0,0-.377-1.861,2.4,2.4,0,0,0-1.857-.844H648.289a2.411,2.411,0,0,0-1.881.874,15.807,15.807,0,0,0-2.768,6.877l-.469-.077a16.206,16.206,0,0,1,2.852-7.056,2.9,2.9,0,0,1,2.266-1.053h48.233a2.9,2.9,0,0,1,2.238,1.017,2.376,2.376,0,0,1,.454,2.243,78.551,78.551,0,0,0-1.188,42.206c3.766,14.433,1.956,20.321-.226,22.718A4.684,4.684,0,0,1,694.468,285.124Z" transform="translate(19103.773 1049.425)" fill="#e6e6e6"/>
    <path id="路径_1865" data-name="路径 1865" d="M651.039,335.527h-3.28v-.478H651a3.981,3.981,0,0,0,3.017-1.672c2.1-2.56,3.829-8.9.115-24.552a95.151,95.151,0,0,1,1.194-46.663,2.329,2.329,0,0,0-2.234-2.975H604.86a2.329,2.329,0,0,0-1.881.961,18.329,18.329,0,0,0-2.768,7.564l-.469-.084a18.79,18.79,0,0,1,2.852-7.76,2.806,2.806,0,0,1,2.266-1.158h48.233a2.806,2.806,0,0,1,2.692,3.586,94.655,94.655,0,0,0-1.188,46.42c3.766,15.874,1.956,22.349-.226,24.986A4.507,4.507,0,0,1,651.039,335.527Z" transform="translate(19138.512 1013.782)" fill="#ccc"/>
    <path id="路径_1866" data-name="路径 1866" d="M608.454,351.97a93.979,93.979,0,0,1,1.189-46.257,2.8,2.8,0,0,0-2.691-3.574H558.718a2.808,2.808,0,0,0-2.265,1.153c-1.947,2.677-5.987,11.556-1.475,36.123,2.413,13.143,2.377,22.1,1.589,28.007a31.5,31.5,0,0,1-1.743,7.264l-.066.168a2.727,2.727,0,0,0-.2,1.011,2.768,2.768,0,0,0,.906,2.081,2.649,2.649,0,0,0,.634.44,2.686,2.686,0,0,0,.606.222,2.738,2.738,0,0,0,.654.078h47.489c.006,0,.022,0,.05,0a4.513,4.513,0,0,0,3.33-1.821C610.409,374.24,612.22,367.788,608.454,351.97Zm-.578,24.575a3.986,3.986,0,0,1-3.016,1.667h-47.5a2.328,2.328,0,0,1-1.927-1.023,2.275,2.275,0,0,1-.322-1.887,1.954,1.954,0,0,1,.088-.272,29.287,29.287,0,0,0,1.563-5.615c1.129-6.153,1.339-15.648-1.315-30.086-4.478-24.385-.518-33.13,1.391-35.757a2.338,2.338,0,0,1,1.881-.957h48.234a2.322,2.322,0,0,1,2.233,2.964,94.5,94.5,0,0,0-1.193,46.5c3.714,15.6,1.987,21.914-.116,24.465Z" transform="translate(19174.521 979.312)" fill="#fb9a08" stroke="#fb9a08" stroke-width="2"/>
    <path id="路径_1867" data-name="路径 1867" d="M617.623,400.451H584.741c-1.392,0-2.52-.853-2.52-1.9s1.128-1.9,2.52-1.9h32.882c1.392,0,2.52.853,2.52,1.9S619.015,400.451,617.623,400.451Z" transform="translate(19150.805 900.095)" fill="#45d2eb"/>
    <path id="路径_1868" data-name="路径 1868" d="M617.623,441.451H584.741c-1.392,0-2.52-.853-2.52-1.9s1.128-1.9,2.52-1.9h32.882c1.392,0,2.52.853,2.52,1.9S619.015,441.451,617.623,441.451Z" transform="translate(19150.805 867.852)" fill="#45d2eb"/>
    <path id="路径_1869" data-name="路径 1869" d="M627.623,483.451H594.741c-1.392,0-2.52-.853-2.52-1.9s1.128-1.9,2.52-1.9h32.882c1.392,0,2.52.853,2.52,1.9S629.015,483.451,627.623,483.451Z" transform="translate(19142.916 834.822)" fill="#45d2eb"/>
    <path id="路径_1870" data-name="路径 1870" d="M634.623,527.451H601.741c-1.392,0-2.52-.853-2.52-1.9s1.128-1.9,2.52-1.9h32.882c1.392,0,2.52.853,2.52,1.9S636.015,527.451,634.623,527.451Z" transform="translate(19137.395 800.22)" fill="#45d2eb"/>
    <path id="路径_1871" data-name="路径 1871" d="M653.982,326.541H636.124a1.9,1.9,0,1,1,0-3.81h17.857a1.9,1.9,0,1,1,0,3.81Z" transform="translate(19109.332 958.219)" fill="#fb9a08"/>
    <path id="路径_1872" data-name="路径 1872" d="M640.623,570.451H607.741c-1.392,0-2.52-.853-2.52-1.9s1.128-1.9,2.52-1.9h32.882c1.392,0,2.52.853,2.52,1.9s-1.128,1.9-2.52,1.9Z" transform="translate(19132.658 766.404)" fill="#45d2eb"/>
  </g>
</svg>
