<svg xmlns="http://www.w3.org/2000/svg" width="26.588" height="26.588" viewBox="0 0 26.588 26.588">
  <g id="组_3661" data-name="组 3661" transform="translate(0 0)">
    <path id="路径_1737" data-name="路径 1737" d="M4.308,10.942l3.551,3.553,6.518-6.518L10.824,4.426,4.308,10.942Zm14.2-4.877L16.995,4.553a2.024,2.024,0,0,1-2.747-2.746L12.737.295a1.017,1.017,0,0,0-1.432,0L.295,11.3a1.017,1.017,0,0,0,0,1.432l1.512,1.51a2.024,2.024,0,0,1,2.747,2.748L6.066,18.5a1.015,1.015,0,0,0,1.432,0L18.506,7.5a1.015,1.015,0,0,0,0-1.432ZM7.859,16.12,2.683,10.942,10.825,2.8,16,7.977,7.859,16.12Z" transform="translate(13.294 0) rotate(45)" fill="#fb9a08"/>
    <rect id="矩形_1773" data-name="矩形 1773" width="24" height="24" transform="translate(1 1)" fill="none"/>
  </g>
</svg>
