<svg id="Layer_2" data-name="Layer 2" xmlns="http://www.w3.org/2000/svg" width="24" height="24" viewBox="0 0 24 24">
  <g id="car">
    <rect id="矩形_1818" data-name="矩形 1818" width="24" height="24" opacity="0"/>
    <path id="路径_1837" data-name="路径 1837" d="M21.6,11.22,17,7.52V5a1.91,1.91,0,0,0-1.81-2H3.79A1.91,1.91,0,0,0,2,5V15a2,2,0,0,0,1.2,1.88A3,3,0,1,0,8.8,17h6.36a3,3,0,1,0,5.64,0H21a1,1,0,0,0,1-1V12a1,1,0,0,0-.4-.78ZM20,12.48V15H17V10.08ZM7,18a1,1,0,1,1-1-1A1,1,0,0,1,7,18Zm5-3H4V5H15V15Zm7,3a1,1,0,1,1-1-1A1,1,0,0,1,19,18Z" fill="#8b8b8b"/>
  </g>
</svg>
